<?xml version="1.0" encoding="UTF-8" standalone="no"?>
<svg width="32" height="32" viewBox="0 0 32 32" fill="none" xmlns="http://www.w3.org/2000/svg">
  <!-- Background Circle -->
  <circle cx="16" cy="16" r="16" fill="#3e878a"/>
  
  <!-- SB Letters -->
  <path d="M10 20C10 21.105 10.895 22 12 22H16C17.105 22 18 21.105 18 20C18 18.895 17.105 18 16 18H12C10.895 18 10 17.105 10 16C10 14.895 10.895 14 12 14H16C17.105 14 18 14.895 18 16" 
    stroke="white" stroke-width="2" stroke-linecap="round" stroke-linejoin="round"/>
  
  <path d="M18 12C18 10.895 18.895 10 20 10H22C23.105 10 24 10.895 24 12V20C24 21.105 23.105 22 22 22H20C18.895 22 18 21.105 18 20" 
    stroke="white" stroke-width="2" stroke-linecap="round" stroke-linejoin="round"/>
</svg> 