<?xml version="1.0" encoding="UTF-8" standalone="no"?>
<svg width="16" height="16" viewBox="0 0 16 16" fill="none" xmlns="http://www.w3.org/2000/svg">
  <!-- Background Circle -->
  <circle cx="8" cy="8" r="8" fill="#3e878a"/>
  
  <!-- S Letter -->
  <path d="M5 10C5 10.552 5.448 11 6 11H8C8.552 11 9 10.552 9 10C9 9.448 8.552 9 8 9H6C5.448 9 5 8.552 5 8C5 7.448 5.448 7 6 7H8C8.552 7 9 7.448 9 8" 
    stroke="white" stroke-width="1" stroke-linecap="round" stroke-linejoin="round"/>
  
  <!-- B Letter -->
  <path d="M9 6C9 5.448 9.448 5 10 5H11C11.552 5 12 5.448 12 6V10C12 10.552 11.552 11 11 11H10C9.448 11 9 10.552 9 10" 
    stroke="white" stroke-width="1" stroke-linecap="round" stroke-linejoin="round"/>
</svg> 